<svg xmlns="http://www.w3.org/2000/svg" viewBox="0 0 200 200" width="200" height="200"><defs><style>.cls-2{fill:#ffae39}.cls-3{fill:#ff8c00}.cls-4{fill:#ffd38f}.cls-5{fill:#fff}.cls-6{fill:#989898}.cls-7{fill:#c3d8ff}.cls-8{fill:#fa6500}.cls-9{fill:#e0ecff}.cls-10{fill:#e4e4e4}.cls-11{fill:#9abbff}.cls-12{fill:#1b6eff}</style></defs><circle cx="97.26" cy="112.8" r="73.57" fill="#f1f1f1"/><path class="cls-2" d="M179.64 111.85a57.31 57.31 0 0 1-3.23 19.69 45.74 45.74 0 0 1-9 14.9c-6.45 7.17-14.75 11.9-22 15.3.71-1.07 1.37-2.16 2-3.29a43.67 43.67 0 0 0 5.35-19.74c0-.87.06-1.76.06-2.66v-1.91l.42-.47c5-5.54 7.31-12.48 7.31-21.82a39.87 39.87 0 0 0-1.22-9.74c6.74-.58 12.55-5.71 16.25-11.84a59.75 59.75 0 0 1 4.06 21.58z"/><path class="cls-3" d="M175.57 90.27c-3.7 6.13-9.51 11.26-16.25 11.84a42.06 42.06 0 0 0-2.8-7.81A40.71 40.71 0 0 0 145.24 80a9.55 9.55 0 0 1 11.91-14.94 59.9 59.9 0 0 1 18.42 25.21z"/><path class="cls-2" d="M114.82 150.45c7.79-2.32 14.92-6.49 14.92-13.23 0-7.24-11.93-10-19.19-10a39.3 39.3 0 0 0-4.6.28c0 .79-.08 1.59-.08 2.41a27.16 27.16 0 0 0 8.95 20.54zm-27-64.28c.23-.65.44-1.29.65-1.91a7.24 7.24 0 0 0 .53-2.75c-.12-1.2-.84-1.58-2.09-1.46-1.76.16-4.08 1.42-4 2.6s3.09 2.73 4.92 3.52zm-29.94 3.62A28.11 28.11 0 0 1 56 84.72a26.45 26.45 0 0 1-.91-6.9 28.91 28.91 0 0 1 .5-5.33q.36-1.89.9-3.72c-2.72-4.44-4.66-9.41-4.66-14.3 0-4.73 2.95-10.34 8.54-10.34 3.54 0 7.5 2 10.83 4.45a37.34 37.34 0 0 1 9.67-4.75c2.8-8.73 8.84-17.3 16.61-17.3 10.87 0 16.42 12.91 19.9 25.27a37.48 37.48 0 0 1 7.26 9.2 37.27 37.27 0 0 1 4.85 17v1.44a28.28 28.28 0 0 0 .21 3.45c-5.15 1.91-11.41 5.26-11.41 10.65 0 6.81 7.39 8.92 14.17 8.92a43.16 43.16 0 0 0 7.24-.68c1.51 1.76 3 3.56 4.41 5.48-6 1.68-13 5-13 11.6 0 7.79 11.3 12.24 20.68 12.24h.85c.07 1 .12 2 .15 3v1.91c0 .9 0 1.79-.06 2.66-6.82.2-13.8 3.24-13.8 10 0 5.27 3.66 8.32 8.45 9.75-.62 1.13-1.28 2.22-2 3.29a60.86 60.86 0 0 1-3.81 5.1H83.19a13.19 13.19 0 0 1 .37-2.22 11.27 11.27 0 0 1 9.88-8.5 37.14 37.14 0 0 0-.44-47.5l3.2-7.06H64.07a5.12 5.12 0 0 0 0-.56 10 10 0 0 0-4.43-8 34.4 34.4 0 0 1-1.76-3.18zm47-45.54c-1.14-4.47-3.06-8.51-7.27-8.51-3.7 0-6 2.93-7.55 6.38q1.1-.06 2.19-.06a37.25 37.25 0 0 1 12.59 2.19zm.15 19.2a11.44 11.44 0 1 0-22.87 0c0 .43 0 .85.07 1.27a11.44 11.44 0 0 0 10.1 10.09 10.69 10.69 0 0 0 1.27.07A11.43 11.43 0 0 0 105 63.45zM80.2 74.37a10.67 10.67 0 0 0-21.33 0 11.37 11.37 0 0 0 .06 1.18A10.67 10.67 0 0 0 68.35 85a11.51 11.51 0 0 0 1.18.06A10.67 10.67 0 0 0 80.2 74.37zM65.7 53.13a9.55 9.55 0 0 0-4.37-1.42c-2 0-3 1.36-3 3.49a13.48 13.48 0 0 0 1.53 5.56 37.67 37.67 0 0 1 5.84-7.63z"/><path class="cls-3" d="M152.66 131.09h-.85c-9.38 0-20.68-4.45-20.68-12.24 0-6.62 7-9.92 13-11.6 4.25 5.81 7.73 12.81 8.53 23.84zM152.77 138.71a43.67 43.67 0 0 1-5.35 19.74C142.63 157 139 154 139 148.7c0-6.7 7-9.79 13.77-9.99zM139.73 101.78a43.16 43.16 0 0 1-7.24.68c-6.78 0-14.17-2.11-14.17-8.92 0-5.39 6.26-8.74 11.41-10.65a28.15 28.15 0 0 0 6.36 14.64c1.2 1.47 2.42 2.83 3.64 4.25zM129.74 137.22c0 6.74-7.13 10.91-14.92 13.23a27.16 27.16 0 0 1-8.95-20.5c0-.82 0-1.62.08-2.41a39.3 39.3 0 0 1 4.6-.28c7.26 0 19.19 2.74 19.19 9.96z"/><path class="cls-4" d="M97.57 35.74c4.21 0 6.13 4 7.27 8.51a37.25 37.25 0 0 0-12.63-2.19q-1.09 0-2.19.06c1.54-3.45 3.85-6.38 7.55-6.38z"/><path class="cls-5" d="M93.56 52a11.44 11.44 0 0 1 0 22.87 10.69 10.69 0 0 1-1.27-.07 9 9 0 1 0-10.1-10.09c0-.42-.07-.84-.07-1.27A11.44 11.44 0 0 1 93.56 52zM101.8 132.65a37 37 0 0 1-8.36 23.47 11.27 11.27 0 0 0-9.88 8.5 38.12 38.12 0 0 1-4.37 2.22H50.12a37.16 37.16 0 0 1-13.77-58.25l-3.2-7.06h10.54c1.38 2.1.45 5.69 4.48 5.69a3.56 3.56 0 0 0 2.71-1.28 4 4 0 0 0 2.88 1.17 4.17 4.17 0 0 0 3.42-1.9 2.88 2.88 0 0 0 2.3 1.19c2.1 0 4.3-2.29 4.59-4.87h32.09L93 108.59a37 37 0 0 1 8.8 24.06zm-4.73 0a32.28 32.28 0 0 0-4.36-16.25 19.82 19.82 0 0 1-7.39 1.6c-8.11 0-13.26-6.6-20.74-6.6-6.11 0-10.14 4.83-15.89 4.83-3.69 0-5.85-2.61-9.63-3.5a32.43 32.43 0 0 0-1.27 38 32.45 32.45 0 0 0 13.32 11.31h27.08A32.58 32.58 0 0 0 92.66 149a32.31 32.31 0 0 0 4.41-16.35z"/><path class="cls-6" d="M100.19 65.85a9 9 0 0 1-7.9 9 11.44 11.44 0 0 1-10.1-10.09 9 9 0 0 1 18 1.13z"/><path class="cls-7" d="M88.38 135.53a3.42 3.42 0 1 1-3.38 3.41 3.41 3.41 0 0 1 3.38-3.41z"/><path class="cls-8" d="M89 81.51a7.24 7.24 0 0 1-.52 2.75c-.21.62-.42 1.26-.65 1.91-1.8-.79-4.77-2.28-4.89-3.52s2.21-2.44 4-2.6c1.22-.12 1.94.26 2.06 1.46z"/><path class="cls-5" d="M83.56 164.62a13.19 13.19 0 0 0-.37 2.22h-4a38.12 38.12 0 0 0 4.37-2.22z"/><circle class="cls-5" cx="78.6" cy="127.46" r="2.17"/><path class="cls-5" d="M69.53 63.71a10.66 10.66 0 1 1 0 21.32 11.51 11.51 0 0 1-1.18-.03 8.43 8.43 0 1 0-9.42-9.42 11.37 11.37 0 0 1-.06-1.18 10.66 10.66 0 0 1 10.66-10.69z"/><circle class="cls-5" cx="75.32" cy="145.96" r="1.77"/><path class="cls-6" d="M75.72 76.61A8.44 8.44 0 0 1 68.35 85a10.67 10.67 0 0 1-9.42-9.41 8.43 8.43 0 0 1 16.79 1.06z"/><path class="cls-4" d="M61.33 51.71a9.55 9.55 0 0 1 4.37 1.42 37.67 37.67 0 0 0-5.82 7.63 13.48 13.48 0 0 1-1.53-5.56c0-2.13.99-3.49 2.98-3.49z"/><path class="cls-9" d="M54.17 146.36c-1.38-3.76-3.65-5.12-3.65-8.67 0-5.62 5.95-5.29 5.95-9.58 0-1.6-.87-3.09-.87-4.68 0-5.48 8.53-5.25 12.23-9.26.45 2.56 1.79 5 1.79 7.64 0 3.61-3.43 4.34-3.43 6.71 0 1.31 1 2.15 1 4.23.02 8.19-10.03 8.3-13.02 13.61zM51.5 121.35a1.05 1.05 0 1 1-1.06 1.05 1 1 0 0 1 1.06-1.05z"/><path class="cls-3" d="M59.67 93a13.63 13.63 0 0 0-8-2.45c-5.7 0-11.83 3-13.35 11h5.36c1.38 2.1.45 5.69 4.48 5.69a3.56 3.56 0 0 0 2.71-1.28 4 4 0 0 0 2.88 1.17 4.17 4.17 0 0 0 3.42-1.9 2.88 2.88 0 0 0 2.3 1.19c2.1 0 4.3-2.29 4.59-4.87a5.12 5.12 0 0 0 0-.56A10 10 0 0 0 59.67 93z"/><path class="cls-9" d="M48.61 148c.09-2 .9-4.06.9-6.11 0-4.11-3.53-4.79-3.53-8.1 0-2.46 1.79-4.65 1.79-7.12 0-5.52-5.88-6.39-8.22-9.38-.86 4-4.19 5.62-4.19 9.86 0 3.22 2.79 4.41 2.79 7 0 2-1 3.85-1 5.59 0 5.87 7.29 4.85 11.46 8.43zm5.56-1.6c3-5.31 13-5.42 13-13.56 0-2.08-1-2.92-1-4.23 0-2.37 3.43-3.1 3.43-6.71 0-2.67-1.34-5.08-1.79-7.64-3.7 4-12.23 3.78-12.23 9.26 0 1.59.87 3.08.87 4.68 0 4.29-5.95 4-5.95 9.58 0 3.55 2.27 4.91 3.65 8.67zm.57 3.39A26.32 26.32 0 0 1 50 151.9a8.86 8.86 0 0 1-2.55.39c-2.69 0-3.71-1.74-7.38-1.74a10.21 10.21 0 0 0-2.22.25 32.43 32.43 0 0 1 1.27-38c3.78.89 5.94 3.5 9.63 3.5 5.75 0 9.78-4.83 15.89-4.83 7.48 0 12.63 6.6 20.74 6.6a19.82 19.82 0 0 0 7.39-1.63 32.45 32.45 0 0 1 0 32.58 19.41 19.41 0 0 0-4.34-.54A16.86 16.86 0 0 0 77 152.6a12.39 12.39 0 0 0-4-.57 18.13 18.13 0 0 0-1.93.11c-2.49-3.49-5.69-5-8.79-5-2.64.04-5.11 1.33-7.54 2.61zm37.05-10.81a3.41 3.41 0 1 0-3.41 3.42 3.41 3.41 0 0 0 3.41-3.46zm-11-11.48a2.17 2.17 0 1 0-2.17 2.16 2.17 2.17 0 0 0 2.15-2.2zm-3.7 18.5a1.77 1.77 0 1 0-1.77 1.78 1.77 1.77 0 0 0 1.77-1.78zm-24.55-23.6a1.05 1.05 0 1 0-1 1 1 1 0 0 0 1-1z"/><path class="cls-9" d="M48.61 148v.22c-4.17-3.58-11.46-2.56-11.46-8.43 0-1.74 1-3.63 1-5.59 0-2.64-2.79-3.83-2.79-7 0-4.24 3.33-5.84 4.19-9.86 2.34 3 8.22 3.86 8.22 9.38 0 2.47-1.79 4.66-1.79 7.12 0 3.31 3.53 4 3.53 8.1 0 1.96-.81 4-.9 6.06z"/><path class="cls-8" d="M84.15 93.7a.72.72 0 0 1-.46-.16.7.7 0 0 1-.08-1 19.52 19.52 0 0 0 3.33-6c-3-1.37-4.59-2.66-4.7-3.83-.17-1.78 2.61-3.19 4.61-3.38a2.86 2.86 0 0 1 1.92.35 2.18 2.18 0 0 1 .93 1.75 7.65 7.65 0 0 1-.55 3l-.13.39-.3.91.29.12a21.78 21.78 0 0 0 6.89 1.71.71.71 0 0 1 0 1.42 23.44 23.44 0 0 1-7.41-1.81l-.24-.1a20.56 20.56 0 0 1-3.55 6.33.69.69 0 0 1-.55.3zm3.17-13h-.34c-1.69.16-3.38 1.31-3.33 1.83s1.36 1.5 3.76 2.62l.27-.79.13-.38a6.61 6.61 0 0 0 .48-2.46c-.05-.53-.24-.66-.3-.7a1.29 1.29 0 0 0-.67-.09zM43.18 102.24a.69.69 0 0 1-.47-.18 2.53 2.53 0 0 0-1.12-.57.71.71 0 1 1 .35-1.37 4 4 0 0 1 1.72.88.71.71 0 0 1-.48 1.24zM51.15 106.89a.68.68 0 0 1-.4-.13.71.71 0 0 1-.18-1 4.15 4.15 0 0 0 .69-2.36 9.4 9.4 0 0 0-2-5.45.71.71 0 1 1 1.15-.83 10.78 10.78 0 0 1 2.3 6.28 5.48 5.48 0 0 1-.94 3.16.72.72 0 0 1-.62.33zM57.4 106.17a.68.68 0 0 1-.36-.1.71.71 0 0 1-.26-1 4.31 4.31 0 0 0 .58-2.15c0-2.15-1.37-4-2.56-5.38a.71.71 0 0 1 1.07-.93c1.35 1.56 2.91 3.69 2.91 6.31a5.81 5.81 0 0 1-.77 2.86.71.71 0 0 1-.61.39zM121 155.82a.7.7 0 0 1-.37-.11c-10.27-6.28-15.48-15-15.48-25.76 0-14.31 7.82-23.58 21.46-25.45a.71.71 0 0 1 .79.61.7.7 0 0 1-.6.8c-6.68.91-11.83 3.59-15.3 8-3.22 4.06-4.93 9.61-4.93 16.07 0 10.28 5 18.54 14.8 24.55a.71.71 0 0 1 .23 1 .7.7 0 0 1-.6.29z"/><path class="cls-8" d="M103.07 167.55H103a.71.71 0 0 1-.61-.8c1-7.47 9.25-12.49 16.31-12.49 4.75 0 9.85 1.85 15.15 5.51a.71.71 0 1 1-.8 1.17c-5.07-3.49-9.9-5.26-14.35-5.26-6.46 0-14 4.52-14.9 11.26a.71.71 0 0 1-.73.61z"/><path class="cls-8" d="M112.1 167.55h-.1a.71.71 0 0 1-.58-.83 8.34 8.34 0 0 1 5.48-6.51.71.71 0 0 1 .5 1.33 7 7 0 0 0-4.6 5.46.72.72 0 0 1-.7.55zM121 167.55h-.09a.72.72 0 0 1-.62-.79 6.78 6.78 0 0 1 2.62-4.61.72.72 0 0 1 1 .12.71.71 0 0 1-.12 1 5.3 5.3 0 0 0-2.09 3.66.71.71 0 0 1-.7.62z"/><path class="cls-5" d="M83 167.55h-.06a.71.71 0 0 1-.65-.76 12.16 12.16 0 0 1 12.26-11.43 15.43 15.43 0 0 1 5.45 1 .72.72 0 0 1 .41.92.71.71 0 0 1-.92.41 13.93 13.93 0 0 0-4.94-1A10.63 10.63 0 0 0 83.7 166.9a.71.71 0 0 1-.7.65z"/><path class="cls-8" d="M89.21 167.55h-.16a.71.71 0 0 1-.53-.85 7.16 7.16 0 0 1 4.33-5.43.71.71 0 0 1 .92.41.72.72 0 0 1-.41.92 5.71 5.71 0 0 0-3.46 4.4.72.72 0 0 1-.69.55zM95.66 167.55h-.16a.72.72 0 0 1-.54-.85 7.83 7.83 0 0 1 2.11-3.83.71.71 0 0 1 1 0 .7.7 0 0 1 0 1 6.43 6.43 0 0 0-1.72 3.13.72.72 0 0 1-.69.55z"/><path class="cls-10" d="M110.83 85.18a.71.71 0 0 1-.67-.48.72.72 0 0 1 .44-.91l26.51-9.18a.7.7 0 0 1 .9.43.71.71 0 0 1-.43.91l-26.52 9.19a.93.93 0 0 1-.23.04zM108.47 79.66a.71.71 0 0 1-.32-1.34l28.22-14.18a.71.71 0 0 1 .95.32.7.7 0 0 1-.31 1l-28.23 14.13a.7.7 0 0 1-.31.07zM105.05 75.33a.73.73 0 0 1-.58-.3.71.71 0 0 1 .18-1l23.89-16.67a.71.71 0 0 1 1 .17.72.72 0 0 1-.18 1l-23.9 16.67a.71.71 0 0 1-.41.13zM63.56 91.05h-.06l-21.94-2.11a.71.71 0 0 1-.63-.78.69.69 0 0 1 .77-.63l21.93 2.1a.72.72 0 0 1 .64.78.71.71 0 0 1-.71.64zM62.22 86.91a.44.44 0 0 1-.16 0l-20.34-4.84a.71.71 0 0 1 .33-1.38l20.33 4.82a.71.71 0 0 1-.16 1.4z"/><path class="cls-9" d="M55.61 152.54a.69.69 0 0 1-.63-.39 12.8 12.8 0 0 1-1.52-6c0-4.23 2.19-8.12 4.32-11.89 1.83-3.25 3.73-6.61 4.3-10.25a.71.71 0 0 1 .81-.59.7.7 0 0 1 .59.81c-.61 3.89-2.57 7.37-4.47 10.73-2.12 3.77-4.13 7.34-4.13 11.19a11.47 11.47 0 0 0 1.36 5.36.71.71 0 0 1-.31 1 .72.72 0 0 1-.32.03zM50.16 154.22a.72.72 0 0 1-.71-.66c-.25-4.06-2.66-7.67-5-11.16-2.15-3.22-4.18-6.26-4.18-9.32a25.48 25.48 0 0 1 .67-5c.22-1.06.42-2.06.52-3a.72.72 0 0 1 .78-.64.71.71 0 0 1 .63.78c-.1 1-.32 2-.54 3.15a24 24 0 0 0-.64 4.7c0 2.63 1.91 5.5 3.94 8.54 2.32 3.47 5 7.41 5.23 11.85a.71.71 0 0 1-.66.75z"/><path class="cls-6" d="M141.62 166.84H47.35a73.55 73.55 0 0 0 99.83 0z"/><circle class="cls-8" cx="94.49" cy="82.66" r=".89"/><circle class="cls-8" cx="100.59" cy="83.64" r=".89"/><circle class="cls-8" cx="98.52" cy="78.43" r=".89"/><circle class="cls-8" cx="75.91" cy="92.41" r=".89"/><circle class="cls-8" cx="80.51" cy="88.28" r=".89"/><circle class="cls-8" cx="75.16" cy="86.6" r=".89"/><circle class="cls-7" cx="73.12" cy="155.61" r=".89"/><path class="cls-7" d="M50 151.9a26.32 26.32 0 0 0 4.79-2.15c2.43-1.28 4.9-2.57 7.59-2.57 3.1 0 6.3 1.47 8.79 5a18.13 18.13 0 0 1 1.93-.11 12.39 12.39 0 0 1 4 .57 16.86 16.86 0 0 1 11.3-4.16 19.41 19.41 0 0 1 4.34.54 32.58 32.58 0 0 1-14.47 13.13H51.12A32.45 32.45 0 0 1 37.8 150.8a10.21 10.21 0 0 1 2.22-.25c3.67 0 4.69 1.74 7.38 1.74a8.86 8.86 0 0 0 2.6-.39z"/><path class="cls-11" d="M61.55 157.66a.67.67 0 0 1-.38-.11.7.7 0 0 1-.22-1c2.24-3.61 7.84-5.26 12.1-5.26 4 0 6.74 1.23 9.77 4.4a.71.71 0 0 1-1 1c-2.76-2.89-5.13-4-8.74-4-4 0-9 1.58-10.9 4.59a.7.7 0 0 1-.63.38z"/><circle class="cls-12" cx="56.58" cy="157.68" r=".89"/><circle class="cls-11" cx="60.72" cy="151.18" r=".89"/><circle class="cls-11" cx="53.63" cy="153.45" r=".89"/><circle class="cls-11" cx="84.94" cy="152.95" r=".89"/><circle class="cls-12" cx="47.03" cy="156.4" r=".89"/><circle class="cls-11" cx="65.74" cy="159.16" r=".89"/><circle class="cls-12" cx="77.68" cy="158.34" r=".89"/><circle class="cls-5" cx="46.26" cy="122.83" r="3.3"/><circle class="cls-5" cx="43.27" cy="141.71" r="1.86"/><circle class="cls-7" cx="57.5" cy="133.31" r="1.63"/><circle class="cls-7" cx="67.44" cy="120.19" r="1.46"/></svg>
